<?xml version="1.0" standalone="no"?>
<!DOCTYPE svg PUBLIC "-//W3C//DTD SVG 20010904//EN"
 "http://www.w3.org/TR/2001/REC-SVG-20010904/DTD/svg10.dtd">
<svg version="1.0" xmlns="http://www.w3.org/2000/svg"
 width="256.000000pt" height="256.000000pt" viewBox="0 0 256.000000 256.000000"
 preserveAspectRatio="xMidYMid meet">

<g transform="translate(0.000000,256.000000) scale(0.100000,-0.100000)"
fill="#000000" stroke="none">
<path d="M1199 2496 c-2 -2 -33 -6 -69 -9 -61 -6 -113 -17 -237 -53 -29 -9
-58 -12 -64 -8 -8 4 -9 3 -5 -4 8 -14 -40 -36 -61 -28 -8 3 -11 1 -8 -4 10
-16 -26 -25 -37 -9 -8 11 -9 11 -5 -3 4 -10 -3 -22 -19 -33 -21 -14 -28 -14
-42 -3 -11 9 -14 10 -8 1 11 -20 -3 -36 -20 -22 -12 10 -13 9 -9 -4 8 -20 -15
-34 -27 -16 -7 11 -8 9 -6 -6 2 -14 -2 -20 -14 -19 -10 1 -16 -2 -13 -6 2 -4
-7 -18 -21 -31 -21 -20 -27 -21 -35 -9 -9 13 -10 12 -6 -2 3 -9 -1 -22 -9 -28
-10 -9 -14 -9 -14 -1 0 6 -5 11 -11 11 -8 0 -8 -4 0 -14 9 -11 9 -16 0 -21 -6
-4 -16 -1 -21 6 -7 10 -8 8 -3 -8 7 -25 -13 -42 -27 -22 -6 10 -7 7 -3 -9 6
-21 4 -23 -17 -17 -16 4 -19 3 -9 -3 16 -12 5 -36 -14 -28 -7 2 -12 -3 -11
-12 1 -12 -5 -16 -19 -14 -15 2 -17 1 -6 -6 16 -12 5 -36 -14 -28 -7 2 -12 -3
-11 -12 0 -9 -5 -16 -12 -14 -8 1 -11 -2 -8 -7 3 -5 -12 -39 -34 -75 -67 -111
-108 -204 -139 -315 -33 -122 -41 -173 -46 -299 -2 -50 -6 -95 -9 -101 -3 -5
0 -11 6 -14 10 -3 9 -8 -2 -22 -9 -11 -10 -16 -3 -11 8 4 13 1 13 -8 0 -9 -6
-16 -12 -16 -10 0 -9 -3 1 -9 8 -5 10 -14 6 -21 -4 -7 -2 -16 6 -20 10 -7 10
-11 0 -24 -11 -14 -11 -16 5 -17 11 0 14 -3 7 -6 -7 -2 -13 -11 -13 -19 0 -9
4 -13 9 -9 5 3 12 1 16 -5 3 -5 1 -10 -4 -10 -6 0 -11 -4 -11 -10 0 -5 8 -10
17 -10 15 0 14 -2 -3 -14 -18 -14 -18 -15 6 -24 l25 -10 -25 -10 c-21 -8 -22
-11 -8 -17 9 -4 22 -4 28 0 5 3 10 1 10 -4 0 -6 -7 -11 -15 -11 -8 0 -15 -7
-15 -16 0 -11 6 -14 20 -9 11 4 20 2 20 -4 0 -6 -7 -11 -15 -11 -8 0 -15 -7
-15 -15 0 -12 4 -13 19 -5 24 12 31 13 31 1 0 -5 -9 -11 -20 -14 -13 -3 -18
-10 -14 -21 5 -12 10 -13 25 -5 11 5 19 6 19 0 0 -5 -7 -12 -16 -15 -23 -9 -8
-25 19 -19 17 4 19 2 8 -5 -8 -6 -16 -17 -17 -26 -2 -13 2 -14 18 -5 11 6 22
8 25 5 3 -3 -2 -8 -11 -12 -9 -3 -16 -13 -16 -20 0 -12 4 -12 20 -4 14 7 20 7
20 0 0 -5 -5 -10 -11 -10 -6 0 -9 -6 -6 -12 2 -7 15 -12 28 -10 18 2 21 1 10
-7 -8 -5 -16 -17 -17 -27 -2 -12 0 -14 9 -5 6 6 18 11 27 11 12 -1 12 -3 -3
-11 -16 -10 -17 -12 0 -39 13 -23 20 -27 30 -18 10 8 19 4 37 -15 21 -22 22
-26 6 -30 -9 -2 -17 -12 -17 -21 0 -15 2 -15 19 1 15 13 21 14 31 4 9 -10 9
-12 -2 -9 -18 4 -24 -37 -7 -52 11 -8 19 -8 35 2 24 14 41 3 21 -15 -10 -10
-11 -9 -5 3 8 13 6 13 -7 2 -9 -8 -14 -20 -11 -28 5 -13 9 -12 27 5 11 11 24
19 28 18 3 -1 10 2 15 7 5 6 2 6 -6 1 -9 -5 -7 2 5 18 10 15 27 27 37 27 10 0
20 7 23 15 4 8 10 15 16 15 5 0 6 -6 2 -12 -4 -8 -3 -10 2 -5 5 5 9 14 9 20 1
7 6 11 13 9 7 -1 12 5 12 13 0 8 5 15 11 15 6 0 8 -7 5 -16 -7 -19 2 -13 52
33 13 12 37 28 52 35 30 13 32 28 2 23 -9 -1 -11 0 -4 2 10 4 8 12 -10 30 -12
14 14 -3 59 -39 165 -129 347 -194 558 -200 43 -1 55 -3 32 -5 -39 -4 -39 -4
-20 -26 18 -22 18 -22 -3 -5 -44 38 -98 33 -149 -12 -11 -10 -29 -20 -40 -22
-11 -1 -23 -7 -27 -13 -5 -6 -11 -5 -17 3 -5 9 -10 0 -15 -29 -5 -31 -17 -51
-43 -75 -20 -19 -39 -34 -42 -34 -13 0 -11 88 3 132 13 44 12 47 -6 51 -14 4
-18 1 -14 -9 3 -8 2 -14 -3 -14 -5 0 -12 -16 -15 -35 -9 -45 -27 -57 -21 -13
4 29 3 28 -7 -6 -8 -30 -8 -44 1 -59 9 -14 9 -17 1 -12 -29 18 -2 -31 27 -51
24 -16 29 -23 19 -27 -8 -3 -16 -1 -18 4 -2 6 -12 7 -23 3 -17 -7 -16 -9 10
-20 43 -19 16 -17 -36 2 -24 9 -49 17 -56 18 -7 1 -16 5 -19 9 -10 9 -35 9
-32 -1 2 -4 -1 -7 -7 -7 -5 0 -9 9 -7 19 1 11 -1 17 -4 13 -4 -4 -14 -1 -22 5
-11 10 -16 9 -24 -5 -9 -16 -11 -16 -38 0 -27 16 -28 18 -14 34 15 17 15 18
-4 16 -12 0 -18 -6 -15 -14 6 -15 -13 -18 -22 -3 -4 6 -1 17 5 25 7 9 8 15 2
15 -5 0 -12 -7 -16 -15 -3 -9 -12 -12 -22 -8 -15 6 -15 7 1 20 10 7 15 16 11
20 -4 4 -12 0 -17 -9 -5 -10 -16 -15 -25 -11 -13 5 -13 8 2 24 9 11 12 19 6
19 -6 0 -14 -4 -17 -10 -3 -5 -13 -10 -22 -10 -14 0 -14 2 2 19 16 19 16 20
-3 18 -11 0 -18 -5 -16 -9 6 -10 -10 -11 -19 -1 -4 3 0 15 10 25 9 10 11 18 5
18 -6 0 -15 -7 -19 -15 -6 -9 -13 -11 -23 -5 -13 8 -12 11 4 23 17 12 17 14 3
20 -9 3 -19 2 -22 -3 -4 -6 -11 -10 -17 -10 -6 0 -3 9 7 20 20 23 9 26 -18 6
-16 -12 -13 -17 30 -58 132 -122 338 -227 548 -279 114 -28 331 -35 460 -16
272 42 498 158 696 356 152 153 240 292 304 483 125 373 68 783 -154 1105 -27
40 -53 68 -64 68 -9 0 -17 -4 -17 -10 0 -5 9 -10 19 -10 11 0 22 -3 26 -6 3
-4 -2 -6 -12 -5 -10 0 -17 -5 -16 -11 5 -22 -3 -15 -31 28 -22 32 -25 43 -15
55 17 21 2 31 -24 15 -22 -14 -22 -13 -4 6 17 20 17 21 0 27 -10 4 -19 2 -21
-3 -2 -6 -8 -11 -14 -11 -6 0 -3 10 8 21 19 22 19 22 -8 17 -18 -3 -25 -1 -21
8 7 18 -18 29 -29 13 -7 -10 -8 -8 -3 8 3 12 1 24 -5 28 -6 3 -8 10 -6 14 6
10 -25 7 -43 -3 -10 -7 -12 -3 -6 14 6 20 4 21 -16 15 -21 -7 -22 -6 -11 7 10
13 10 17 -2 21 -7 3 -19 0 -26 -6 -10 -9 -12 -8 -7 5 8 22 -3 30 -20 16 -12
-10 -14 -8 -11 7 1 10 -3 20 -9 22 -7 3 -13 0 -13 -6 0 -6 -4 -11 -10 -11 -5
0 -7 6 -4 14 3 8 1 17 -5 21 -6 3 -11 1 -11 -4 0 -6 -5 -11 -11 -11 -5 0 -7 5
-4 10 11 18 -6 32 -23 18 -14 -11 -15 -10 -9 6 6 15 3 17 -12 13 -12 -3 -22 1
-25 10 -5 12 -9 13 -21 3 -12 -10 -15 -10 -15 3 0 11 -6 13 -22 9 -14 -3 -19
-1 -14 6 4 8 2 10 -7 6 -8 -3 -30 1 -49 9 -37 16 -151 43 -215 52 -46 7 -249
15 -254 11z m317 -37 c132 -28 334 -108 248 -98 -3 0 -14 -9 -23 -20 -10 -12
-23 -21 -28 -21 -16 0 -58 -54 -54 -70 1 -8 -6 -4 -16 9 -16 20 -25 23 -55 17
-45 -8 -77 -45 -71 -80 3 -16 1 -26 -6 -26 -7 0 -10 19 -9 55 2 42 -2 59 -16
72 -13 13 -20 15 -23 6 -6 -16 -30 -17 -35 -1 -3 7 -12 -10 -20 -37 -9 -27
-14 -53 -12 -57 11 -18 23 -6 30 27 8 42 19 51 39 31 17 -17 20 -42 5 -51 -15
-9 -12 -25 5 -25 8 0 15 -2 15 -4 0 -2 3 -11 6 -20 4 -11 -3 -20 -25 -29 l-32
-14 62 -17 c56 -15 159 -61 159 -70 0 -3 -36 8 -79 24 -92 34 -181 49 -181 31
0 -7 5 -9 12 -5 7 4 2 -7 -10 -24 -25 -34 -37 -37 -165 -46 -43 -3 -106 -13
-140 -22 -134 -34 -291 -131 -376 -233 -50 -60 -127 -191 -136 -232 -4 -17
-11 -26 -17 -23 -7 4 -8 2 -4 -4 10 -16 -4 -64 -18 -59 -6 2 -10 11 -10 19 3
30 -60 2 -69 -31 -5 -22 21 -24 46 -3 9 8 20 12 24 8 9 -8 -14 -29 -50 -44
-23 -10 -27 -10 -21 0 5 10 4 10 -6 1 -10 -9 -13 -47 -13 -140 0 -95 -2 -122
-10 -103 -5 14 -10 78 -11 143 -1 91 -3 109 -9 77 -6 -29 -15 -44 -33 -52 -13
-6 -24 -15 -24 -20 0 -5 -4 -7 -9 -4 -5 4 -23 -8 -40 -24 -26 -26 -34 -29 -51
-20 -13 7 -20 7 -20 0 0 -5 -7 -10 -15 -10 -8 0 -20 -9 -27 -20 -7 -11 -19
-20 -26 -20 -7 0 -21 -14 -31 -31 -16 -27 -20 -29 -24 -13 -3 11 -5 6 -4 -11
3 -47 -17 -41 -25 7 -31 198 18 472 121 675 167 331 505 581 864 638 119 19
338 16 443 -6z m108 -204 c-6 -16 -24 -21 -24 -7 0 11 11 22 21 22 5 0 6 -7 3
-15z m-39 -25 c-3 -5 -10 -10 -16 -10 -5 0 -9 5 -9 10 0 6 7 10 16 10 8 0 12
-4 9 -10z m19 -24 c-6 -15 -34 -23 -34 -10 0 8 34 34 38 30 1 -2 0 -11 -4 -20z
m166 13 c0 -5 -4 -7 -10 -4 -5 3 -22 -6 -36 -20 -33 -33 -41 -27 -13 8 20 27
59 37 59 16z m300 1 c0 -5 -5 -10 -11 -10 -5 0 -7 5 -4 10 3 6 8 10 11 10 2 0
4 -4 4 -10z m-480 -55 c-14 -17 -40 -20 -40 -6 0 8 18 16 44 20 5 0 3 -6 -4
-14z m270 -35 c0 -5 -5 -10 -11 -10 -7 0 -18 -8 -25 -17 -12 -17 -13 -17 -14
-1 0 9 8 22 18 27 22 13 32 14 32 1z m-80 -14 c0 -3 -4 -8 -10 -11 -5 -3 -10
-1 -10 4 0 6 5 11 10 11 6 0 10 -2 10 -4z m120 -46 c0 -9 -32 -30 -46 -30 -9
0 28 39 39 39 4 1 7 -3 7 -9z m35 -40 c-16 -17 -33 -30 -39 -30 -5 0 5 16 24
35 18 19 36 32 39 30 2 -3 -8 -19 -24 -35z m-465 10 c0 -13 -28 -25 -38 -16
-3 4 0 11 8 16 20 13 30 12 30 0z m60 6 c0 -2 -7 -7 -16 -10 -8 -3 -12 -2 -9
4 6 10 25 14 25 6z m7 -33 c-9 -9 -20 -14 -24 -10 -3 4 2 14 13 21 25 19 33
10 11 -11z m63 3 c0 -2 -7 -7 -16 -10 -8 -3 -12 -2 -9 4 6 10 25 14 25 6z
m350 0 c0 -2 -8 -10 -17 -17 -16 -13 -17 -12 -4 4 13 16 21 21 21 13z m-340
-31 c-7 -8 -17 -12 -22 -9 -5 3 -1 12 9 19 22 17 30 11 13 -10z m376 -10 c-9
-14 -21 -25 -27 -25 -5 0 0 13 12 30 27 35 39 32 15 -5z m294 20 c-7 -9 -15
-13 -17 -11 -7 7 7 26 19 26 6 0 6 -6 -2 -15z m-981 -2 c-15 -2 -34 -12 -43
-22 -12 -13 -29 -17 -64 -16 -31 2 -35 1 -9 -2 69 -8 36 -42 -42 -44 -51 -2
-53 -2 -18 -8 l39 -6 -34 -19 c-55 -33 -62 -44 -67 -120 l-6 -71 -60 -6 c-33
-3 -72 -5 -87 -4 -27 1 -28 0 -28 -51 0 -37 -4 -54 -15 -58 -11 -4 -15 2 -16
22 0 37 -10 116 -15 121 -2 2 -4 -10 -4 -28 0 -24 -5 -34 -20 -38 -11 -3 -18
-8 -16 -12 3 -4 -10 -13 -27 -21 -18 -7 -39 -22 -48 -32 -9 -10 -21 -18 -28
-18 -6 0 -11 -7 -11 -15 0 -8 -6 -15 -14 -15 -8 0 -29 -17 -46 -37 l-32 -38 7
35 c4 19 20 63 35 97 111 245 373 413 640 411 30 -1 43 -3 29 -5z m364 -10
c-23 -9 -14 -25 9 -17 20 6 21 5 9 -10 -17 -20 -27 -20 -35 0 -7 19 1 34 17
33 9 0 9 -2 0 -6z m348 -11 c-5 -10 -18 -25 -27 -33 -11 -9 -9 -2 6 19 26 35
36 42 21 14z m69 14 c0 -9 -85 -85 -89 -80 -3 2 8 18 24 34 16 17 25 30 19 31
-5 1 2 5 16 9 14 4 26 8 28 9 1 1 2 -1 2 -3z m245 -38 c22 -37 28 -71 11 -61
-6 3 -8 3 -4 -2 4 -4 3 -14 -3 -22 -16 -19 -1 -16 19 3 12 13 17 14 20 4 3 -7
-3 -19 -12 -25 -21 -16 -20 -24 3 -22 11 0 18 4 15 8 -2 4 0 10 6 14 5 3 10
-3 10 -14 0 -12 5 -21 11 -21 5 0 8 -4 4 -9 -3 -5 -1 -12 5 -16 16 -10 12 -42
-6 -49 -9 -4 -14 -9 -11 -12 3 -3 15 -1 26 6 17 8 21 8 19 -2 -2 -7 -10 -19
-18 -26 -13 -11 -12 -12 8 -7 26 7 27 -11 2 -33 -13 -11 -12 -12 8 -7 26 7 30
-10 5 -24 -10 -5 -15 -13 -11 -17 4 -4 14 -1 23 6 12 10 15 10 15 -4 0 -9 -7
-19 -15 -22 -8 -4 -15 -11 -15 -17 0 -7 4 -7 12 1 16 16 28 15 28 -3 0 -8 -7
-15 -15 -15 -8 0 -15 -5 -15 -11 0 -6 8 -8 18 -5 13 4 19 1 19 -9 0 -8 -6 -15
-14 -15 -7 0 -13 -4 -13 -9 0 -5 10 -7 23 -4 l22 5 -24 -20 c-14 -11 -21 -24
-16 -31 11 -19 18 -174 7 -167 -6 3 -8 16 -4 28 4 18 0 17 -32 -13 -21 -19
-42 -35 -47 -35 -5 -1 -12 -2 -15 -3 -4 0 -1 -7 5 -15 9 -11 9 -16 0 -22 -8
-5 -9 -3 -4 6 6 10 4 12 -9 7 -10 -4 -23 -7 -29 -7 -7 0 2 -12 18 -26 25 -21
22 -20 -16 5 -26 17 -49 27 -52 24 -4 -3 -13 0 -22 7 -9 7 -18 10 -22 6 -3 -3
-2 -6 4 -6 6 0 -2 -14 -19 -32 -28 -30 -63 -87 -56 -92 2 -2 12 -8 23 -15 18
-10 17 -11 -10 -9 -25 3 -30 -1 -28 -17 1 -19 1 -19 -12 -2 -12 17 -14 16 -20
-14 -9 -42 -74 -197 -86 -204 -4 -3 6 25 22 61 54 118 72 204 72 349 1 145
-19 241 -73 363 -17 37 -23 58 -15 48 8 -10 16 -24 18 -30 6 -14 39 4 45 25 3
9 -3 7 -18 -6 l-23 -20 13 21 c7 12 22 27 34 34 17 10 18 10 9 0 -9 -10 -9
-16 2 -27 12 -12 19 -12 44 2 44 22 56 50 33 73 -10 10 -17 23 -14 30 2 6 -22
-3 -52 -19 -34 -19 -54 -25 -51 -17 5 12 84 58 99 58 2 0 13 -15 25 -32 11
-18 21 -28 21 -21 0 6 20 33 45 60 25 26 43 53 41 60 -3 6 2 17 9 23 8 7 12
17 9 22 -3 5 -12 1 -20 -9 -12 -16 -13 -16 -14 -1 0 9 5 20 10 23 12 7 4 25
-11 25 -6 0 -7 -6 -3 -12 5 -10 4 -10 -6 -1 -12 11 -6 33 8 33 4 0 17 -15 27
-32z m-596 -14 c-12 -15 -11 -16 11 -9 24 7 24 7 7 -11 -15 -17 -19 -17 -27
-4 -15 23 -12 40 6 40 14 0 15 -2 3 -16z m312 -23 c-12 -12 -21 -18 -21 -14 0
10 33 44 37 39 3 -2 -5 -14 -16 -25z m-99 -96 c25 -35 10 -21 -58 55 l-48 55
43 -40 c23 -22 52 -53 63 -70z m-148 69 c-18 -14 -18 -15 6 -8 24 6 24 6 7
-12 -15 -17 -19 -17 -27 -4 -16 25 -11 40 12 40 21 0 21 0 2 -16z m283 -4
c-14 -11 -29 -20 -33 -20 -4 0 1 9 11 20 10 11 25 20 33 20 9 0 6 -7 -11 -20z
m12 -62 c1 -5 -3 -8 -7 -8 -4 0 -8 12 -9 28 -1 23 -1 24 7 7 5 -11 9 -23 9
-27z m37 5 c-11 -11 -17 4 -9 23 7 18 8 18 11 1 2 -10 1 -21 -2 -24z m21 -7
c-18 -26 -65 -42 -80 -27 -7 7 -3 8 12 4 12 -3 21 -1 21 6 0 5 7 8 15 4 11 -4
19 4 28 26 6 18 13 27 15 21 2 -6 -3 -21 -11 -34z m-287 25 c0 -5 -6 -12 -12
-15 -7 -3 -2 -3 12 0 24 6 24 6 7 -12 -15 -17 -19 -17 -27 -4 -14 22 -12 40 5
40 8 0 15 -4 15 -9z m59 -65 c10 -12 8 -17 -7 -25 -20 -10 -32 1 -32 30 0 14
26 11 39 -5z m-26 -94 c77 -115 112 -260 106 -435 -4 -102 5 -129 17 -50 10
69 -3 218 -26 298 -22 77 -25 105 -10 105 5 0 7 -7 4 -15 -4 -8 -1 -22 6 -30
10 -13 14 -13 27 0 17 18 37 20 27 3 -4 -7 -3 -8 4 -4 9 5 7 14 -4 32 -15 23
-27 29 -48 25 -11 -2 -26 19 -26 37 0 6 7 12 16 12 14 0 14 -3 4 -15 -11 -13
-10 -14 4 -9 10 4 16 1 16 -7 0 -9 3 -10 10 -3 7 7 7 18 -2 35 -10 19 -20 24
-46 22 -26 -1 -32 2 -28 13 3 9 1 12 -4 9 -6 -3 -10 1 -10 9 0 23 28 20 35 -4
3 -11 13 -20 22 -20 9 0 13 6 9 15 -3 8 -3 15 0 15 3 0 21 -34 40 -76 89 -192
104 -403 43 -606 -20 -67 -21 -69 -35 -49 -18 26 -49 27 -63 4 -6 -10 -11 -13
-11 -6 0 6 6 18 13 25 8 7 12 19 9 27 -3 8 -10 1 -18 -19 -12 -26 -12 -36 -2
-49 22 -27 31 -30 44 -13 9 12 16 14 24 6 13 -13 -7 -67 -21 -58 -8 5 -13 -10
-10 -28 0 -5 -4 -7 -10 -5 -6 1 -14 -4 -17 -12 -3 -8 0 -11 7 -7 7 5 9 1 4
-10 -5 -15 -7 -14 -16 2 -11 20 -27 34 -39 34 -16 0 -39 -35 -34 -52 2 -11 2
-17 -1 -14 -3 3 -15 0 -27 -6 -11 -7 -24 -12 -27 -11 -3 1 -26 -18 -50 -43
-24 -24 -39 -44 -35 -44 5 0 3 -7 -4 -15 -7 -8 -10 -23 -7 -34 4 -17 2 -17
-25 -3 -24 11 -32 12 -41 2 -9 -10 -9 -11 1 -5 11 6 12 3 3 -14 -7 -12 -9 -26
-5 -32 3 -6 -3 -5 -14 2 -18 11 -24 10 -41 -5 -12 -11 -17 -24 -13 -34 5 -14
4 -15 -10 -2 -14 13 -13 17 11 37 14 13 34 23 44 23 9 0 17 5 17 10 0 14 -1
14 -65 -20 -31 -17 -54 -30 -49 -30 4 0 -1 -9 -10 -19 -14 -15 -24 -18 -40
-11 -28 10 -84 1 -65 -11 8 -4 20 -3 28 4 12 10 13 9 3 -10 -11 -20 -14 -21
-40 -7 -32 16 -62 18 -62 3 0 -6 8 -8 19 -4 19 6 19 5 1 -32 -17 -36 -18 -62
-1 -34 5 7 14 10 20 7 6 -4 11 -3 11 2 0 5 12 14 28 21 l27 12 -27 -27 c-23
-24 -35 -28 -97 -30 -39 -1 -75 -5 -81 -9 -5 -3 -14 -4 -19 -1 -4 3 -42 7 -82
10 -91 5 -235 51 -328 105 -114 67 -253 199 -305 289 -18 31 4 7 37 -41 38
-55 107 -127 107 -112 0 5 7 -1 16 -14 13 -18 18 -20 25 -10 7 11 9 12 9 1 0
-7 6 -19 13 -27 11 -11 16 -10 26 7 7 11 19 17 27 14 11 -4 11 0 -2 20 -11 16
-23 23 -33 19 -12 -5 -13 -3 -4 6 9 9 25 3 70 -27 123 -82 264 -135 349 -133
l39 1 -45 10 c-218 47 -394 146 -482 272 -12 17 8 0 45 -37 44 -45 73 -67 83
-63 8 3 12 2 9 -3 -3 -5 0 -13 6 -17 7 -4 9 -3 6 3 -4 6 2 21 13 33 11 13 20
19 20 14 0 -5 7 0 15 10 8 11 15 17 15 13 0 -4 8 0 18 9 37 34 77 64 85 64 4
0 7 12 7 28 l1 27 13 -30 c7 -16 16 -29 20 -27 4 1 9 -21 11 -48 3 -58 35
-106 101 -152 95 -67 274 -76 386 -20 39 19 54 23 42 12 -11 -10 -50 -30 -89
-44 -40 -15 -55 -24 -35 -20 42 7 206 82 197 90 -3 3 -15 1 -26 -6 -17 -8 -21
-8 -21 4 0 19 -60 146 -69 146 -13 0 -10 -33 6 -79 15 -42 15 -45 -3 -58 -32
-24 -115 -43 -184 -43 -172 0 -286 85 -297 220 -4 58 -4 60 20 60 14 0 31 7
38 17 13 15 12 15 -8 5 -36 -20 -40 -13 -5 8 18 11 39 20 48 20 8 0 13 4 10 8
-8 14 31 55 55 58 13 1 25 3 27 3 1 1 -4 14 -13 31 -8 16 -15 35 -15 42 1 7 7
-1 15 -19 20 -47 94 -123 140 -144 25 -12 64 -19 105 -19 57 0 63 2 49 15 -10
11 -39 16 -94 18 l-78 2 -44 60 c-51 71 -67 119 -61 197 9 123 104 208 234
208 68 0 125 -18 159 -50 20 -18 21 -18 54 12 37 34 35 39 -29 58 -25 7 -39
15 -32 17 6 3 9 10 6 15 -8 12 -5 10 57 -28 28 -18 39 -20 50 -11 21 19 -9
-22 -50 -68 -43 -47 -11 -26 39 26 19 20 43 39 52 42 12 4 15 12 11 23 -4 12
-3 15 5 10 7 -4 12 -2 12 4 0 7 6 10 14 7 7 -3 26 8 42 24 15 16 34 29 41 29
7 0 13 7 13 15 0 20 -44 108 -83 164 -16 24 -25 41 -19 37 6 -3 31 -37 55 -74z
m296 59 c9 -15 6 -22 -15 -36 -14 -9 -31 -14 -37 -12 -7 2 0 10 16 17 15 7 27
17 27 22 0 5 -5 6 -12 2 -7 -4 -8 -3 -4 4 10 16 1 15 -34 -3 -17 -9 -30 -12
-30 -7 0 11 39 30 62 31 10 1 22 -8 27 -18z m-671 -43 c-4 -10 -45 -14 -152
-16 -130 -2 -146 -1 -134 12 18 20 292 23 286 4z m512 -117 c0 -5 -7 -11 -15
-15 -9 -3 -15 0 -15 9 0 8 7 15 15 15 8 0 15 -4 15 -9z m-507 -48 c-13 -2 -35
-2 -50 0 -16 2 -5 4 22 4 28 0 40 -2 28 -4z m367 -8 c0 -2 -9 -9 -20 -15 -12
-6 -20 -7 -20 -1 0 5 8 12 18 14 9 3 18 5 20 6 1 0 2 -1 2 -4z m-376 -14 c7
-11 -17 -21 -49 -21 -44 0 -132 -40 -178 -80 -50 -44 -57 -47 -57 -25 0 17 57
72 99 94 57 32 173 52 185 32z m291 -51 c3 -5 1 -10 -4 -10 -6 0 -11 5 -11 10
0 6 2 10 4 10 3 0 8 -4 11 -10z m695 0 c0 -5 -2 -10 -4 -10 -3 0 -8 5 -11 10
-3 6 -1 10 4 10 6 0 11 -4 11 -10z m-862 -20 c18 -11 37 -18 43 -15 5 4 9 1 9
-4 0 -17 -14 -13 -61 14 -24 14 -39 25 -34 25 6 0 25 -9 43 -20z m872 -60 c0
-5 -4 -10 -10 -10 -5 0 -10 5 -10 10 0 6 5 10 10 10 6 0 10 -4 10 -10z m-1980
-24 c0 -3 -7 -12 -16 -20 -23 -23 -40 -19 -19 4 16 18 35 26 35 16z m1980 -17
c0 -6 -4 -7 -10 -4 -5 3 -10 11 -10 16 0 6 5 7 10 4 6 -3 10 -11 10 -16z m0
-34 c0 -8 -2 -15 -4 -15 -2 0 -6 7 -10 15 -3 8 -1 15 4 15 6 0 10 -7 10 -15z
m-60 -8 c0 -2 -12 -14 -27 -28 l-28 -24 24 28 c23 25 31 32 31 24z m-1930 -27
c0 -13 -28 -25 -38 -16 -3 4 0 11 8 16 20 13 30 12 30 0z m1952 -62 c-9 -9
-12 -7 -12 11 0 20 -2 21 -15 11 -8 -7 -12 -16 -9 -21 3 -5 1 -17 -5 -26 -8
-14 -9 -11 -6 16 5 41 24 56 45 36 11 -12 12 -17 2 -27z m-2072 28 c0 -3 -4
-8 -10 -11 -5 -3 -10 -1 -10 4 0 6 5 11 10 11 6 0 10 -2 10 -4z m-84 -37 c3
-6 -5 -3 -20 6 -14 10 -26 19 -26 22 0 7 39 -17 46 -28z m-70 5 c17 -14 17
-15 1 -10 -10 3 -23 6 -28 6 -5 0 -9 5 -9 10 0 14 13 12 36 -6z m271 0 c3 -8
1 -20 -6 -27 -17 -17 -26 0 -10 20 12 15 12 16 -3 10 -10 -3 -18 -2 -18 3 0
16 30 11 37 -6z m1816 -22 c59 -40 63 -53 18 -51 l-26 1 25 7 25 7 -22 12
c-27 15 -36 15 -27 0 8 -13 -12 -3 -38 19 -9 8 -24 16 -34 17 -27 4 -29 26 -2
26 13 0 49 -17 81 -38z m-1948 -2 c-3 -5 -11 -10 -16 -10 -6 0 -7 5 -4 10 3 6
11 10 16 10 6 0 7 -4 4 -10z m-201 -21 c-29 -11 -34 -10 -28 5 3 8 13 12 27 8
20 -5 20 -6 1 -13z m2100 -19 c32 -22 55 -40 50 -40 -5 0 -29 14 -54 30 l-45
30 -17 -23 -18 -22 0 26 c0 50 9 50 84 -1z m-1929 0 c-3 -5 -12 -10 -18 -10
-7 0 -6 4 3 10 19 12 23 12 15 0z m172 -16 c3 -9 0 -20 -8 -24 -20 -13 -24 -3
-8 17 12 15 12 16 -3 10 -10 -3 -18 -2 -18 3 0 16 30 11 37 -6z m19 -93 c-10
-16 -23 -14 -30 5 -9 25 4 38 21 21 9 -8 12 -20 9 -26z m2 -59 c-12 -15 -11
-16 5 -3 19 15 33 9 22 -8 -8 -14 -32 -14 -40 -1 -10 15 3 43 15 35 8 -5 7
-12 -2 -23z m1912 -6 c0 -3 -4 -8 -10 -11 -5 -3 -10 -1 -10 4 0 6 5 11 10 11
6 0 10 -2 10 -4z m-16 -41 c-4 -8 -8 -15 -10 -15 -2 0 -4 7 -4 15 0 8 4 15 10
15 5 0 7 -7 4 -15z m-1839 -25 c0 -22 -29 -18 -33 3 -3 14 1 18 15 15 10 -2
18 -10 18 -18z m1830 -10 c-3 -5 -11 -10 -16 -10 -6 0 -7 5 -4 10 3 6 11 10
16 10 6 0 7 -4 4 -10z m-19 -47 c-10 -10 -19 5 -10 18 6 11 8 11 12 0 2 -7 1
-15 -2 -18z m-1776 2 c12 -15 6 -35 -12 -35 -5 0 -7 7 -4 16 3 8 2 12 -4 9 -6
-3 -10 1 -10 9 0 20 14 20 30 1z m1373 -26 c-10 -17 -24 -36 -32 -42 -8 -7 -2
7 14 31 32 49 45 57 18 11z m-46 2 c-2 -10 -11 -29 -21 -42 -17 -23 -17 -23
-1 5 17 29 17 29 -5 23 -21 -5 -21 -5 -4 14 22 24 35 24 31 0z m443 -1 c0 -5
-4 -10 -10 -10 -5 0 -10 5 -10 10 0 6 5 10 10 10 6 0 10 -4 10 -10z m-30 -60
c-16 -31 -23 -19 -9 16 6 16 13 24 16 17 2 -7 -1 -22 -7 -33z m-1685 20 c10
-17 -15 -42 -30 -30 -6 5 -14 7 -18 4 -3 -3 -3 3 0 15 6 22 37 29 48 11z
m1165 -18 c0 -4 -9 -8 -19 -8 -15 0 -17 3 -9 13 10 12 28 9 28 -5z m49 -13
c-19 -12 -24 -2 -8 17 9 11 14 13 17 4 3 -7 -2 -16 -9 -21z m61 8 c0 -2 -10
-12 -22 -23 l-23 -19 19 23 c18 21 26 27 26 19z m-1243 -31 c-4 -10 -1 -13 9
-9 16 6 19 -13 3 -23 -6 -3 -18 0 -26 9 -9 8 -12 20 -9 26 10 16 29 13 23 -3z
m1079 -6 c0 -20 -7 -25 -19 -13 -4 3 -2 12 4 20 15 17 15 17 15 -7z m554 5 c0
-8 -41 -78 -80 -134 -58 -87 -144 -181 -221 -244 -110 -92 -310 -202 -401
-223 -5 -1 -9 -2 -10 -4 -3 -2 -18 -5 -56 -14 -12 -3 -27 -8 -32 -11 -6 -3
-10 -3 -10 2 0 4 39 21 88 36 125 41 317 137 352 176 3 3 26 23 52 44 61 49
115 103 164 163 21 27 45 55 51 62 18 18 83 131 83 143 0 5 5 9 10 9 6 0 10
-2 10 -5z m-498 -27 c-6 -6 -15 -8 -19 -4 -4 4 -1 11 7 16 19 12 27 3 12 -12z
m48 -11 c0 -2 -10 -12 -22 -23 l-23 -19 19 23 c18 21 26 27 26 19z m-1120 -11
c0 -2 -7 -9 -15 -16 -12 -10 -15 -10 -15 4 0 9 7 16 15 16 8 0 15 -2 15 -4z
m1009 -37 c-19 -12 -24 -2 -8 17 9 11 14 13 17 4 3 -7 -2 -16 -9 -21z m41 -13
c0 -2 -8 -10 -17 -17 -16 -13 -17 -12 -4 4 13 16 21 21 21 13z m-90 -17 c0 -8
6 -7 18 2 14 11 15 11 5 -1 -14 -16 -53 -24 -53 -12 0 11 11 22 22 22 4 0 8
-5 8 -11z m-1080 -3 c0 -2 -7 -7 -16 -10 -8 -3 -12 -2 -9 4 6 10 25 14 25 6z
m-390 -16 c0 -5 -5 -10 -11 -10 -5 0 -7 5 -4 10 3 6 8 10 11 10 2 0 4 -4 4
-10z m1392 -32 c-6 -6 -15 -8 -19 -4 -4 4 -1 11 7 16 19 12 27 3 12 -12z m-62
-21 c0 -7 -9 -18 -21 -25 -17 -11 -20 -11 -13 0 20 36 34 46 34 25z m-65 -31
c12 -11 10 -13 -11 -13 -24 0 -30 7 -17 20 9 10 13 9 28 -7z m-1150 -36 c3 -5
-1 -10 -9 -10 -9 0 -16 -5 -16 -11 0 -5 -5 -7 -10 -4 -8 5 -7 11 1 21 14 16
25 18 34 4z m1102 4 c-3 -3 -12 -4 -19 -1 -8 3 -5 6 6 6 11 1 17 -2 13 -5z
m73 -13 c0 -5 -7 -11 -15 -15 -15 -5 -20 5 -8 17 9 10 23 9 23 -2z m200 -11
c0 -5 -7 -10 -16 -10 -8 0 -28 -15 -45 -32 -16 -18 -29 -27 -29 -19 0 18 55
71 74 71 9 0 16 -4 16 -10z m-303 -16 c-3 -3 -12 -4 -19 -1 -8 3 -5 6 6 6 11
1 17 -2 13 -5z m-54 -11 c-7 -2 -21 -2 -30 0 -10 3 -4 5 12 5 17 0 24 -2 18
-5z m257 -23 c0 -5 -7 -10 -16 -10 -8 0 -12 5 -9 10 3 6 10 10 16 10 5 0 9 -4
9 -10z m-416 -9 c3 -5 -10 -12 -29 -15 -23 -5 -44 -19 -62 -41 -35 -43 -49
-45 -28 -5 25 48 103 88 119 61z m346 -10 c0 -14 -18 -23 -31 -15 -8 4 -7 9 2
15 18 11 29 11 29 0z m-140 -41 c0 -5 -9 -10 -20 -10 -12 0 -32 -12 -46 -27
-13 -14 -28 -23 -32 -19 -10 11 55 66 78 66 11 0 20 -4 20 -10z m-262 -35 c-6
-14 -13 -23 -15 -21 -5 5 15 46 22 46 3 0 -1 -11 -7 -25z m-69 -58 c1 -5 -3
-5 -9 -2 -5 3 -10 16 -9 28 0 21 1 21 9 2 5 -11 9 -24 9 -28z m-70 -11 c-10
-21 -59 -55 -59 -40 0 8 54 63 62 64 4 0 3 -11 -3 -24z m55 -12 c3 -8 2 -12
-4 -9 -6 3 -10 10 -10 16 0 14 7 11 14 -7z m80 0 c3 -8 2 -12 -4 -9 -6 3 -10
10 -10 16 0 14 7 11 14 -7z m331 -16 c-3 -9 -17 -20 -31 -27 -31 -14 -34 -14
-34 -1 0 6 6 10 13 10 8 0 22 9 32 20 20 22 29 21 20 -2z m-775 -29 c0 -5 -7
-9 -15 -9 -9 0 -12 6 -9 15 6 15 24 11 24 -6z m570 -4 c-7 -8 -24 -15 -39 -15
-25 1 -25 2 9 19 39 20 49 19 30 -4z m-290 -10 c-7 -9 -15 -13 -19 -10 -3 3 1
10 9 15 21 14 24 12 10 -5z m-215 -15 c3 -5 -1 -10 -10 -10 -9 0 -13 5 -10 10
3 6 8 10 10 10 2 0 7 -4 10 -10z m43 -18 c2 -7 -2 -10 -12 -6 -9 3 -16 11 -16
16 0 13 23 5 28 -10z m32 -12 c0 -5 -4 -10 -10 -10 -5 0 -10 5 -10 10 0 6 5
10 10 10 6 0 10 -4 10 -10z m35 -10 c3 -5 -1 -10 -10 -10 -9 0 -13 5 -10 10 3
6 8 10 10 10 2 0 7 -4 10 -10z m615 -10 c0 -5 -7 -10 -16 -10 -8 0 -12 5 -9
10 3 6 10 10 16 10 5 0 9 -4 9 -10z m-545 -10 c3 -5 1 -10 -4 -10 -6 0 -11 5
-11 10 0 6 2 10 4 10 3 0 8 -4 11 -10z m505 0 c0 -5 -8 -11 -17 -11 -10 -1
-33 -3 -50 -5 -18 -2 -33 0 -33 6 0 5 19 11 43 13 23 2 45 4 50 5 4 1 7 -2 7
-8z m-465 -10 c3 -5 1 -10 -4 -10 -6 0 -11 5 -11 10 0 6 2 10 4 10 3 0 8 -4
11 -10z m235 -10 c0 -5 -4 -10 -10 -10 -5 0 -10 5 -10 10 0 6 5 10 10 10 6 0
10 -4 10 -10z m77 3 c-11 -10 -57 -13 -57 -2 0 5 14 9 32 9 17 0 28 -3 25 -7z
m40 1 c-3 -3 -12 -4 -19 -1 -8 3 -5 6 6 6 11 1 17 -2 13 -5z"/>
<path d="M1183 2353 c-18 -7 -16 -23 2 -23 8 0 15 7 15 15 0 8 -1 15 -2 14 -2
0 -9 -3 -15 -6z"/>
<path d="M1353 2353 c-18 -6 -16 -23 1 -23 17 0 30 16 19 23 -5 2 -14 2 -20 0z"/>
<path d="M1110 2328 c-1 -5 -3 -13 -4 -18 0 -6 -8 -15 -16 -20 -10 -7 -11 -10
-2 -10 6 0 12 -11 12 -24 0 -30 27 -59 47 -52 8 3 17 6 19 6 2 0 4 5 4 11 0 6
-9 8 -20 4 -17 -5 -20 -2 -20 24 0 16 5 33 10 36 15 10 12 28 -4 22 -9 -4 -17
1 -19 11 -3 9 -6 14 -7 10z"/>
<path d="M1267 2270 c-29 -39 -34 -52 -23 -56 23 -9 69 0 74 14 3 9 -3 11 -22
6 -32 -8 -33 0 -1 38 14 16 25 34 25 39 0 20 -18 7 -53 -41z"/>
<path d="M1358 2314 c-5 -4 -8 -21 -8 -39 0 -17 -5 -36 -11 -42 -8 -8 -7 -13
1 -18 20 -13 31 11 28 60 -2 26 -6 43 -10 39z"/>
<path d="M1185 2298 c-10 -25 -1 -81 13 -86 14 -4 17 65 2 88 -8 12 -10 12
-15 -2z"/>
<path d="M1234 2301 c7 -10 31 -9 42 2 4 4 -5 7 -20 7 -15 0 -25 -4 -22 -9z"/>
<path d="M994 2265 c-17 -13 -16 -14 19 -8 24 4 37 2 37 -6 0 -6 -8 -11 -18
-11 -11 0 -26 -8 -36 -19 -24 -27 0 -45 49 -35 35 6 37 8 31 37 -11 56 -42 72
-82 42z m66 -45 c0 -16 -38 -32 -46 -19 -7 12 12 29 34 29 6 0 12 -4 12 -10z"/>
<path d="M930 2245 c-7 -8 -16 -12 -21 -9 -5 3 -2 -14 7 -38 21 -52 20 -51 33
-44 6 4 6 17 -1 37 -8 22 -7 34 1 42 6 6 11 15 11 19 0 13 -17 9 -30 -7z"/>
<path d="M843 2210 c-33 -14 -45 -43 -27 -68 23 -34 94 -23 94 14 0 13 -5 12
-26 -5 -21 -17 -30 -19 -41 -9 -21 17 -12 52 15 56 12 2 22 8 22 13 0 11 -8
11 -37 -1z"/>
<path d="M718 2138 c-34 -34 -17 -78 32 -78 33 0 50 17 50 51 0 47 -47 62 -82
27z m56 -16 c15 -18 15 -20 -4 -37 -16 -14 -22 -15 -35 -5 -8 7 -15 20 -15 30
0 34 28 40 54 12z"/>
<path d="M1398 2133 c6 -2 18 -2 25 0 6 3 1 5 -13 5 -14 0 -19 -2 -12 -5z"/>
<path d="M1266 2094 c-19 -19 -20 -28 -3 -42 8 -7 18 -5 35 8 27 22 27 26 3
40 -15 7 -23 6 -35 -6z"/>
<path d="M1349 2096 c-8 -6 -23 -24 -33 -41 -17 -26 -17 -28 -2 -16 15 13 19
13 27 0 5 -8 9 -9 9 -3 0 6 11 17 25 24 17 9 22 17 15 25 -5 7 -8 14 -5 17 10
10 -23 4 -36 -6z"/>
<path d="M1187 2093 c-10 -9 -9 -41 1 -47 15 -9 52 23 46 39 -6 15 -35 20 -47
8z"/>
<path d="M632 2079 c-13 -5 -26 -18 -29 -29 -3 -11 -11 -20 -17 -20 -7 0 -23
-12 -35 -26 l-23 -27 31 -30 c45 -46 56 -25 15 30 -15 21 -15 23 0 29 11 4 26
-2 42 -17 16 -15 28 -19 34 -13 7 7 4 16 -10 29 -23 21 -27 55 -7 55 8 0 22
-9 32 -20 18 -20 45 -27 45 -12 0 5 -12 20 -27 34 -23 21 -33 24 -51 17z"/>
<path d="M1113 2083 c-15 -5 -17 -39 -5 -47 15 -9 52 23 46 39 -6 15 -19 18
-41 8z"/>
<path d="M1031 2056 c-11 -13 -5 -46 9 -46 14 0 42 39 35 49 -9 15 -30 14 -44
-3z"/>
<path d="M965 2037 c-11 -9 -16 -20 -12 -31 8 -20 17 -20 43 -2 17 13 17 16 4
30 -14 14 -19 14 -35 3z"/>
<path d="M884 1996 c-3 -8 -2 -22 3 -31 9 -15 12 -14 33 3 13 11 20 24 16 30
-10 17 -46 15 -52 -2z"/>
<path d="M820 1955 c-10 -12 -10 -19 -1 -28 14 -14 46 2 46 24 0 20 -30 23
-45 4z"/>
<path d="M484 1933 c-26 -18 -33 -49 -18 -71 28 -40 95 -16 94 34 -1 16 -3 14
-15 -7 -18 -32 -36 -40 -57 -25 -19 14 -6 56 18 56 16 0 16 -2 -1 -20 -10 -11
-15 -23 -11 -27 7 -7 41 35 41 52 0 12 -36 18 -51 8z"/>
<path d="M765 1917 c-11 -9 -16 -20 -12 -31 8 -20 16 -20 42 -1 17 14 17 17 4
30 -13 13 -18 13 -34 2z"/>
<path d="M696 1854 c-4 -10 -2 -22 3 -27 12 -12 54 10 48 26 -6 19 -44 20 -51
1z"/>
<path d="M405 1841 c-19 -4 -35 -17 -45 -36 -8 -17 -19 -33 -23 -36 -5 -4 16
-21 48 -39 31 -18 57 -31 59 -29 41 61 47 106 18 132 -10 10 -20 16 -23 16 -2
-1 -17 -4 -34 -8z m37 -28 c10 -9 18 -24 18 -33 0 -23 -39 -72 -40 -50 0 8
-14 23 -31 33 l-32 18 23 24 c28 29 37 31 62 8z"/>
<path d="M652 1808 c-29 -29 -2 -60 29 -32 14 13 16 20 8 31 -14 16 -22 16
-37 1z"/>
<path d="M606 1745 c-30 -31 -5 -56 29 -31 18 14 19 16 4 31 -15 15 -17 15
-33 0z"/>
<path d="M560 1675 c-12 -15 -7 -45 8 -45 20 0 43 26 36 43 -8 21 -27 22 -44
2z"/>
<path d="M533 1613 c-15 -5 -17 -39 -5 -47 15 -9 52 23 46 39 -6 15 -19 18
-41 8z"/>
<path d="M502 1538 c-31 -31 -3 -58 34 -33 20 13 23 19 13 31 -14 17 -31 18
-47 2z"/>
<path d="M1020 1824 c0 -21 -4 -33 -10 -29 -5 3 -10 -1 -10 -10 0 -9 -4 -14
-8 -11 -5 3 -20 -6 -35 -20 -15 -14 -46 -29 -70 -33 -36 -8 -28 -9 51 -10 l92
-1 0 75 c0 41 -2 75 -5 75 -3 0 -5 -16 -5 -36z"/>
<path d="M2365 1800 c-3 -5 -2 -10 4 -10 5 0 13 5 16 10 3 6 2 10 -4 10 -5 0
-13 -4 -16 -10z"/>
<path d="M2385 1770 c-3 -5 -2 -10 4 -10 5 0 13 5 16 10 3 6 2 10 -4 10 -5 0
-13 -4 -16 -10z"/>
<path d="M2173 1663 c-10 -10 -14 -15 -8 -11 6 4 22 12 36 17 15 6 18 10 8 10
-9 1 -25 -7 -36 -16z"/>
<path d="M2208 1654 c-34 -17 -48 -31 -48 -45 0 -12 5 -19 13 -16 6 2 11 11 9
19 -3 19 39 32 50 15 9 -14 23 -2 33 31 8 28 2 27 -57 -4z"/>
<path d="M2209 1233 c-13 -16 -12 -17 4 -4 16 13 21 21 13 21 -2 0 -10 -8 -17
-17z"/>
<path d="M2009 1519 c-9 -17 -8 -25 6 -38 15 -15 17 -15 26 2 6 9 15 17 21 17
6 0 7 -8 3 -17 -4 -13 -3 -15 5 -7 16 16 -8 64 -31 64 -10 0 -23 -10 -30 -21z
m41 -8 c0 -12 -20 -25 -27 -18 -7 7 6 27 18 27 5 0 9 -4 9 -9z"/>
<path d="M2032 1448 c-27 -27 -4 -54 31 -36 9 5 22 6 27 3 6 -4 5 5 -2 19 -12
28 -36 34 -56 14z m28 -23 c-7 -9 -15 -13 -17 -11 -7 7 7 26 19 26 6 0 6 -6
-2 -15z"/>
<path d="M1395 1401 c-79 -36 -125 -111 -125 -200 0 -53 25 -131 42 -131 6 0
4 8 -3 17 -8 9 -9 14 -3 10 6 -3 21 4 33 17 13 14 30 22 41 19 10 -3 21 1 26
8 5 9 2 10 -12 5 -10 -4 -1 9 21 28 22 19 48 38 58 41 9 4 17 10 17 15 0 4 20
18 45 30 25 12 43 26 39 31 -3 5 4 9 15 9 12 0 21 7 21 15 0 8 5 15 11 15 5 0
7 -6 4 -12 -4 -7 2 -2 13 12 20 23 20 26 4 44 -43 48 -171 62 -247 27z"/>
<path d="M2045 1370 c-14 -16 -15 -22 -5 -35 11 -13 15 -12 36 3 29 21 30 28
5 41 -14 8 -23 6 -36 -9z m30 -20 c-3 -5 -11 -10 -16 -10 -6 0 -7 5 -4 10 3 6
11 10 16 10 6 0 7 -4 4 -10z"/>
<path d="M2050 1305 c-14 -17 -10 -47 9 -53 9 -3 11 2 6 17 -4 13 -2 21 5 21
6 0 8 -4 5 -10 -3 -5 -2 -10 4 -10 17 0 23 20 11 35 -16 19 -24 19 -40 0z"/>
<path d="M2042 1228 c-15 -15 -15 -33 1 -46 16 -14 61 22 53 43 -7 18 -37 20
-54 3z"/>
<path d="M1445 1190 c-3 -6 1 -7 9 -4 18 7 21 14 7 14 -6 0 -13 -4 -16 -10z"/>
<path d="M2080 1170 c-8 -5 -23 -11 -33 -14 -22 -7 -33 -34 -19 -48 14 -14 66
18 59 37 -3 7 0 18 6 24 13 13 8 13 -13 1z"/>
<path d="M1345 1100 c-3 -6 1 -7 9 -4 18 7 21 14 7 14 -6 0 -13 -4 -16 -10z"/>
<path d="M2065 1090 c-3 -5 -1 -10 4 -10 6 0 11 5 11 10 0 6 -2 10 -4 10 -3 0
-8 -4 -11 -10z"/>
<path d="M2016 1074 c-11 -10 -16 -11 -16 -3 0 7 -2 10 -5 8 -8 -8 6 -47 19
-52 6 -3 22 4 35 14 19 16 21 22 11 34 -16 19 -25 19 -44 -1z"/>
<path d="M1680 1004 c13 -32 8 -39 -43 -66 -30 -16 -66 -23 -129 -26 -77 -4
-92 -2 -145 22 -32 15 -72 41 -89 57 -47 46 -68 37 -72 -31 -4 -67 19 -131 60
-165 41 -35 47 -24 14 24 -29 41 -45 94 -46 145 l0 28 41 -37 c66 -59 120 -78
224 -79 99 -1 164 20 218 71 l27 27 -27 28 c-33 35 -45 36 -33 2z"/>
<path d="M2053 1023 c-15 -5 -17 -23 -4 -23 5 0 11 7 15 15 3 8 4 15 3 14 -1
0 -8 -3 -14 -6z"/>
<path d="M1605 994 c-22 -13 -35 -24 -30 -24 6 0 28 11 50 25 22 13 36 24 30
24 -5 -1 -28 -12 -50 -25z"/>
<path d="M1930 989 c-26 -62 -89 -149 -104 -143 -9 3 -19 -3 -26 -16 -7 -13
-17 -19 -26 -16 -8 3 -13 2 -10 -3 7 -11 -28 -43 -37 -34 -4 3 -7 1 -7 -6 0
-6 -16 -21 -35 -32 -20 -12 -40 -29 -45 -39 -8 -15 -5 -17 20 -16 34 2 93 42
84 58 -5 7 -2 8 5 4 13 -9 74 51 121 119 34 49 83 145 77 151 -2 3 -10 -9 -17
-27z m-130 -194 c-19 -19 -37 -35 -42 -35 -4 0 10 17 30 39 20 21 39 36 41 34
3 -2 -11 -19 -29 -38z"/>
<path d="M1946 953 c-6 -14 -5 -15 5 -6 7 7 10 15 7 18 -3 3 -9 -2 -12 -12z"/>
<path d="M1961 937 c-7 -7 -16 -12 -20 -12 -5 0 -25 -24 -45 -54 -51 -75 -50
-74 -29 -60 11 6 25 23 31 38 24 52 42 77 42 59 0 -10 9 -22 20 -28 11 -6 20
-7 20 -2 0 4 15 23 33 42 20 21 24 29 12 22 -12 -6 -27 -7 -36 -2 -10 6 -20 5
-28 -3z"/>
<path d="M1500 805 c-14 -8 -20 -14 -14 -15 5 0 19 7 30 15 24 18 16 19 -16 0z"/>
<path d="M1320 770 c-13 -8 -13 -9 0 -14 36 -11 82 -15 110 -9 24 4 28 8 19
19 -13 16 -106 19 -129 4z"/>
<path d="M1729 690 c-17 -14 -20 -19 -9 -20 8 0 21 9 28 20 15 25 11 25 -19 0z"/>
<path d="M816 645 c-8 -9 -19 -16 -23 -16 -4 0 -9 -3 -10 -5 -2 -2 0 -2 3 0 3
2 16 -7 29 -20 13 -13 30 -24 37 -24 9 0 9 3 -2 10 -11 7 -12 12 -3 21 15 15
35 1 28 -20 -3 -10 1 -24 10 -31 13 -11 15 -10 13 6 -2 11 2 19 7 19 6 0 9 -3
8 -7 -2 -4 4 -5 12 -2 8 4 15 10 15 14 0 15 -28 30 -44 24 -10 -4 -18 1 -23
12 -12 35 -34 42 -57 19z m34 -14 c0 -12 -20 -25 -27 -18 -7 7 6 27 18 27 5 0
9 -4 9 -9z"/>
<path d="M958 579 c-21 -12 -24 -45 -5 -52 7 -2 23 3 35 13 20 17 21 20 6 34
-8 9 -16 16 -17 16 -1 0 -10 -5 -19 -11z m32 -23 c0 -2 -7 -6 -15 -10 -8 -3
-15 -1 -15 4 0 6 7 10 15 10 8 0 15 -2 15 -4z"/>
<path d="M1526 581 c-17 -6 -17 -8 -3 -14 8 -3 21 1 27 9 13 15 6 17 -24 5z"/>
<path d="M1320 570 l-55 -7 45 -1 c25 0 63 3 85 7 33 7 34 9 10 8 -16 0 -55
-3 -85 -7z"/>
<path d="M1025 544 c-20 -20 -16 -33 15 -53 18 -12 22 -13 16 -2 -6 9 -3 18 9
27 15 11 16 16 5 29 -16 19 -25 19 -45 -1z m35 -8 c0 -3 -4 -8 -10 -11 -5 -3
-10 -1 -10 4 0 6 5 11 10 11 6 0 10 -2 10 -4z"/>
<path d="M1102 528 c-17 -17 -15 -33 4 -49 15 -12 16 -11 10 8 -4 12 -2 24 3
28 7 3 8 0 5 -9 -7 -18 4 -20 25 -7 12 8 12 12 2 25 -16 19 -33 20 -49 4z"/>
<path d="M1253 533 c16 -4 17 -7 4 -21 -8 -10 -17 -24 -20 -34 -4 -12 0 -15
20 -13 13 1 32 10 41 19 16 16 16 18 -2 32 -19 13 -18 14 12 14 l32 0 -20 -34
-19 -35 23 3 c12 1 33 10 46 19 23 16 23 18 7 34 -11 12 -36 17 -79 19 -35 1
-55 0 -45 -3z"/>
<path d="M1182 518 c-17 -17 -15 -45 4 -52 12 -5 14 -1 9 17 -5 17 -4 19 4 7
13 -19 37 1 28 24 -8 19 -28 21 -45 4z"/>
<path d="M2290 1186 c0 -2 7 -7 16 -10 8 -3 12 -2 9 4 -6 10 -25 14 -25 6z"/>
<path d="M2210 2090 c-22 -13 2 -35 25 -23 13 8 14 11 3 21 -9 7 -19 7 -28 2z"/>
<path d="M295 548 c-10 -26 -2 -43 12 -26 7 8 8 19 3 28 -8 12 -10 12 -15 -2z"/>
<path d="M866 461 c4 -15 2 -21 -4 -17 -6 4 -8 -2 -5 -14 7 -27 17 -25 31 5
15 34 15 38 -2 32 -8 -3 -17 -1 -20 6 -3 7 -3 1 0 -12z"/>
<path d="M475 459 c-11 -17 1 -21 15 -4 8 9 8 15 2 15 -6 0 -14 -5 -17 -11z"/>
<path d="M810 439 c0 -6 -7 -9 -14 -6 -10 4 -13 1 -9 -9 3 -7 8 -14 12 -14 4
0 16 -7 27 -16 10 -8 13 -12 5 -8 -11 5 -13 3 -8 -10 5 -11 3 -15 -5 -10 -8 5
-9 2 -5 -10 5 -11 3 -15 -5 -10 -8 5 -9 2 -5 -10 4 -11 3 -15 -4 -10 -8 4 -9
-1 -4 -15 8 -25 2 -27 -19 -5 -15 14 -16 14 -16 -1 0 -9 9 -19 20 -22 11 -3
20 -9 20 -13 0 -4 10 -10 22 -13 12 -4 19 -9 15 -13 -3 -4 -18 1 -33 10 -33
23 -46 10 -15 -15 31 -25 71 -25 71 0 0 10 -9 21 -20 24 -25 7 -25 27 0 78 18
34 23 38 41 29 10 -6 24 -8 29 -5 6 3 10 1 10 -5 0 -6 5 -8 10 -5 8 5 8 11 1
19 -6 7 -8 16 -3 20 4 4 -4 6 -18 5 -50 -4 -70 0 -64 16 4 8 1 15 -6 15 -6 0
-8 -4 -5 -10 3 -5 1 -10 -5 -10 -7 0 -9 8 -5 20 4 11 2 20 -4 20 -6 0 -11 -5
-11 -11z"/>
<path d="M782 365 c-17 -37 -14 -45 4 -12 9 16 14 31 11 33 -2 2 -9 -7 -15
-21z"/>
<path d="M685 219 c-11 -17 1 -21 15 -4 8 9 8 15 2 15 -6 0 -14 -5 -17 -11z"/>
</g>
</svg>
