<svg id="svg" version="1.1" xmlns="http://www.w3.org/2000/svg" xmlns:xlink="http://www.w3.org/1999/xlink" width="400" height="400" viewBox="0, 0, 400,400"><g id="svgg"><path id="path0" d="M212.109 53.403 C 207.885 53.874,201.202 55.224,200.010 55.845 C 199.253 56.240,196.435 57.260,193.749 58.110 C 158.465 69.285,133.892 104.866,135.278 142.773 C 136.394 173.274,167.876 193.175,196.757 181.637 C 198.433 180.968,199.965 180.262,200.160 180.069 C 200.500 179.734,199.009 178.167,198.323 178.138 C 197.651 178.110,192.602 174.020,189.487 170.980 C 182.283 163.952,178.145 155.668,176.763 145.508 C 176.554 143.973,176.532 135.241,176.734 133.984 C 176.902 132.941,177.339 130.036,177.537 128.652 C 178.529 121.707,186.854 108.908,193.066 104.777 C 193.872 104.241,194.531 103.650,194.531 103.464 C 194.531 103.277,194.717 103.125,194.943 103.125 C 195.428 103.125,199.788 100.212,200.764 99.236 C 205.046 94.954,222.883 92.828,232.617 95.439 C 245.117 98.793,256.246 107.858,262.059 119.422 C 262.731 120.759,263.281 122.121,263.281 122.450 C 263.281 122.978,265.751 123.047,284.766 123.047 C 305.575 123.047,306.250 123.024,306.250 122.308 C 306.250 114.847,296.415 94.244,288.328 84.766 C 287.870 84.229,286.839 82.998,286.037 82.031 C 282.083 77.264,271.114 67.846,267.782 66.357 C 267.347 66.163,266.465 65.655,265.820 65.229 C 252.822 56.634,229.387 51.473,212.109 53.403 M263.694 160.059 C 256.695 189.268,234.110 213.265,205.149 222.263 C 201.467 223.406,200.746 223.828,202.062 224.068 C 202.324 224.115,203.770 224.421,205.273 224.746 C 213.552 226.538,229.084 226.485,237.837 224.634 C 241.643 223.829,248.821 221.914,249.414 221.544 C 249.629 221.410,249.893 221.283,250.000 221.261 C 250.107 221.239,250.547 221.088,250.977 220.926 C 251.406 220.763,252.285 220.439,252.930 220.205 C 257.459 218.562,268.825 212.267,271.761 209.775 C 272.020 209.555,272.346 209.375,272.485 209.375 C 273.727 209.375,288.281 195.617,288.281 194.444 C 288.281 194.239,289.376 192.724,290.715 191.078 C 295.692 184.959,302.657 171.495,304.276 164.865 C 304.462 164.101,304.983 162.086,305.432 160.387 C 305.882 158.687,306.250 157.061,306.250 156.773 C 306.250 156.342,302.571 156.250,285.428 156.250 L 264.607 156.250 263.694 160.059 " stroke="none" fill="#04eb83" fill-rule="evenodd"></path><path id="path1" d="M169.531 53.699 C 155.944 55.490,142.935 60.237,132.031 67.383 C 126.271 71.158,116.454 79.972,113.086 84.393 C 112.441 85.239,111.512 86.416,111.020 87.008 C 93.063 108.645,88.061 144.339,99.194 171.390 C 102.976 180.580,105.024 184.071,112.984 194.896 C 114.267 196.641,120.511 203.088,123.047 205.288 C 133.038 213.952,149.049 221.943,161.328 224.394 C 163.154 224.758,165.357 225.213,166.223 225.403 C 174.916 227.315,198.341 225.934,200.917 223.357 C 201.251 223.023,202.192 222.625,203.008 222.472 C 216.772 219.894,236.955 206.370,247.605 192.590 C 255.365 182.549,264.056 163.719,264.062 156.934 C 264.062 156.291,262.797 156.251,242.871 156.261 L 221.680 156.271 220.508 158.893 C 217.616 165.362,211.220 172.584,204.339 177.148 C 202.395 178.438,200.800 179.690,200.793 179.932 C 200.769 180.821,193.123 183.626,188.129 184.580 C 162.406 189.489,137.026 170.650,135.140 145.248 C 132.267 106.557,157.297 69.378,194.141 57.609 C 200.702 55.514,200.471 55.643,198.581 55.125 C 192.407 53.432,177.216 52.687,169.531 53.699 M213.477 95.159 C 208.735 96.006,200.391 98.978,200.391 99.821 C 200.391 99.930,200.786 100.194,201.270 100.408 C 201.753 100.622,202.868 101.277,203.748 101.863 C 204.628 102.450,206.312 103.575,207.489 104.363 C 211.818 107.262,218.402 115.463,220.746 120.878 L 221.680 123.034 242.480 123.040 C 253.921 123.044,263.278 122.915,263.274 122.754 C 263.253 121.953,259.192 114.934,257.277 112.388 C 247.220 99.026,229.925 92.223,213.477 95.159 M109.766 260.084 C 93.194 264.415,93.744 287.909,110.505 291.647 C 113.703 292.360,118.868 292.238,120.898 291.400 C 124.920 289.741,128.552 287.095,128.489 285.870 C 128.462 285.355,123.525 280.823,122.684 280.543 C 122.443 280.463,121.569 281.007,120.744 281.753 C 114.293 287.581,105.407 281.441,107.820 272.823 C 109.347 267.370,116.730 265.849,121.212 270.064 C 122.647 271.415,122.445 271.487,125.750 268.440 C 128.972 265.470,129.025 265.071,126.460 263.146 C 121.828 259.670,115.670 258.541,109.766 260.084 M246.484 259.780 C 235.952 261.982,230.342 273.381,235.026 283.064 C 241.282 295.997,262.723 294.963,266.999 281.523 C 271.242 268.187,260.537 256.841,246.484 259.780 M140.279 263.189 C 139.551 264.851,137.923 268.584,136.661 271.484 C 131.557 283.210,128.443 290.392,128.235 290.918 C 128.086 291.293,129.169 291.406,132.891 291.406 L 137.740 291.406 138.892 288.574 L 140.045 285.742 146.296 285.635 L 152.547 285.528 153.715 288.466 L 154.883 291.403 159.668 291.405 C 162.379 291.406,164.453 291.248,164.453 291.041 C 164.453 290.626,159.504 279.303,157.040 274.081 C 156.143 272.179,155.350 270.333,155.278 269.979 C 155.108 269.141,154.608 267.875,153.403 265.234 C 152.864 264.053,152.151 262.427,151.817 261.621 L 151.212 260.156 146.407 260.162 L 141.602 260.167 140.279 263.189 M167.188 275.764 L 167.188 291.430 171.973 291.321 L 176.758 291.211 176.869 287.207 L 176.980 283.203 178.822 283.211 L 180.664 283.218 183.282 287.312 L 185.900 291.406 190.932 291.406 C 193.699 291.406,196.063 291.307,196.184 291.186 C 196.305 291.065,195.016 288.940,193.319 286.465 C 189.750 281.258,189.854 281.611,191.539 280.457 C 198.063 275.987,196.699 265.157,189.146 261.448 L 186.914 260.352 177.051 260.224 L 167.188 260.097 167.188 275.764 M200.391 275.781 L 200.391 291.406 211.071 291.406 C 222.577 291.406,223.810 291.244,226.847 289.325 C 231.420 286.437,231.239 278.004,226.551 275.580 L 225.409 274.989 226.602 273.849 C 229.602 270.982,229.398 265.470,226.192 262.772 C 223.439 260.456,221.645 260.156,210.532 260.156 L 200.391 260.156 200.391 275.781 M272.656 275.793 L 272.656 291.430 277.441 291.321 L 282.227 291.211 282.422 283.698 L 282.617 276.185 286.523 281.099 C 288.672 283.802,290.693 286.333,291.016 286.724 C 291.338 287.115,292.301 288.329,293.156 289.421 L 294.711 291.406 298.723 291.406 L 302.734 291.406 302.734 275.781 L 302.734 260.156 298.047 260.156 L 293.359 260.156 293.342 267.676 L 293.325 275.195 291.005 272.656 C 289.729 271.260,288.682 269.973,288.678 269.796 C 288.675 269.620,288.452 269.236,288.184 268.943 C 287.915 268.651,286.201 266.555,284.375 264.285 L 281.055 260.160 276.855 260.158 L 272.656 260.156 272.656 275.793 M217.960 267.769 C 221.718 269.712,219.187 272.266,213.502 272.266 L 209.766 272.266 209.766 269.727 L 209.766 267.188 213.301 267.188 C 215.667 267.188,217.207 267.380,217.960 267.769 M182.617 267.958 C 188.815 269.389,186.406 275.781,179.669 275.781 L 176.953 275.781 176.953 271.680 L 176.953 267.578 179.004 267.587 C 180.132 267.593,181.758 267.759,182.617 267.958 M254.936 268.848 C 263.090 274.297,256.027 287.692,247.348 283.241 C 241.323 280.151,241.929 269.075,248.190 267.848 C 251.042 267.289,253.049 267.586,254.936 268.848 M148.862 276.270 L 149.598 278.125 146.306 278.125 L 143.013 278.125 144.177 275.293 C 144.817 273.735,145.554 271.969,145.815 271.367 L 146.289 270.273 147.208 272.343 C 147.713 273.482,148.457 275.249,148.862 276.270 M218.899 279.279 C 220.420 279.858,221.221 281.324,220.674 282.526 C 219.994 284.019,218.716 284.375,214.044 284.375 L 209.766 284.375 209.766 281.641 L 209.766 278.906 213.842 278.906 C 216.084 278.906,218.360 279.074,218.899 279.279 M124.163 304.420 C 114.341 307.768,110.277 318.904,115.513 328.125 C 120.449 336.819,134.532 338.860,142.314 332.010 C 144.660 329.946,144.644 329.858,141.439 327.010 C 138.286 324.207,138.245 324.199,136.305 325.951 C 131.073 330.678,123.086 326.859,123.055 319.616 C 123.025 312.377,131.838 308.637,136.689 313.830 C 137.731 314.946,138.471 315.099,139.217 314.355 C 139.486 314.087,140.704 313.007,141.924 311.955 C 144.547 309.692,144.572 309.551,142.676 307.757 C 138.315 303.631,130.572 302.236,124.163 304.420 M148.047 319.727 L 148.047 335.547 152.734 335.547 L 157.422 335.547 157.422 331.445 L 157.422 327.344 159.519 327.344 L 161.616 327.344 164.331 331.348 L 167.046 335.352 171.870 335.462 C 178.050 335.603,178.023 335.648,174.686 330.914 C 170.777 325.368,170.876 325.640,172.381 324.610 C 177.610 321.027,178.084 311.725,173.254 307.485 C 169.812 304.462,167.158 303.906,156.178 303.906 L 148.047 303.906 148.047 319.727 M181.250 319.727 L 181.250 335.547 193.945 335.547 L 206.641 335.547 206.641 331.836 L 206.641 328.125 198.633 328.125 L 190.625 328.125 190.625 325.586 L 190.625 323.047 197.461 323.047 L 204.297 323.047 204.297 319.531 L 204.297 316.016 197.461 316.016 L 190.625 316.016 190.625 313.875 L 190.625 311.735 198.340 311.629 L 206.055 311.523 206.166 307.715 L 206.278 303.906 193.764 303.906 L 181.250 303.906 181.250 319.727 M211.812 319.590 L 211.914 335.352 219.922 335.461 C 237.840 335.705,244.436 331.129,243.982 318.766 C 243.583 307.917,238.075 304.286,221.578 304.000 L 211.710 303.828 211.812 319.590 M248.438 319.524 L 248.438 335.141 249.316 335.361 C 249.800 335.481,251.953 335.529,254.102 335.466 L 258.008 335.352 258.110 319.629 L 258.212 303.906 253.325 303.906 L 248.438 303.906 248.438 319.524 M261.719 307.813 L 261.719 311.719 266.211 311.719 L 270.703 311.719 270.703 323.430 L 270.703 335.141 271.582 335.361 C 272.065 335.481,274.219 335.529,276.367 335.466 L 280.273 335.352 280.377 323.535 L 280.480 311.719 284.967 311.719 L 289.453 311.719 289.453 307.813 L 289.453 303.906 275.586 303.906 L 261.719 303.906 261.719 307.813 M165.764 312.838 C 169.092 315.964,166.473 319.531,160.851 319.531 L 157.422 319.531 157.422 315.578 L 157.422 311.626 161.120 311.787 C 164.301 311.926,164.950 312.073,165.764 312.838 M230.880 313.028 C 233.556 314.555,234.495 316.496,234.312 320.117 C 234.056 325.187,231.365 327.395,225.108 327.669 L 221.484 327.828 221.484 319.721 L 221.484 311.614 225.293 311.814 C 228.449 311.979,229.406 312.187,230.880 313.028 " stroke="none" fill="#5b5b5b" fill-rule="evenodd"></path><path id="path2" d="" stroke="none" fill="#2ca16c" fill-rule="evenodd"></path><path id="path3" d="M219.816 94.423 C 220.509 94.509,221.739 94.510,222.550 94.426 C 223.360 94.341,222.793 94.271,221.289 94.269 C 219.785 94.267,219.122 94.336,219.816 94.423 M252.930 107.422 C 253.769 108.281,254.543 108.984,254.651 108.984 C 254.758 108.984,254.159 108.281,253.320 107.422 C 252.481 106.563,251.707 105.859,251.599 105.859 C 251.492 105.859,252.091 106.563,252.930 107.422 M134.900 139.648 C 134.901 141.367,134.970 142.022,135.052 141.103 C 135.135 140.184,135.134 138.778,135.050 137.978 C 134.966 137.178,134.898 137.930,134.900 139.648 M147.461 171.875 C 148.519 172.949,149.473 173.828,149.580 173.828 C 149.687 173.828,148.910 172.949,147.852 171.875 C 146.793 170.801,145.840 169.922,145.732 169.922 C 145.625 169.922,146.403 170.801,147.461 171.875 M198.438 181.055 C 197.900 181.362,197.637 181.613,197.852 181.613 C 198.066 181.613,198.682 181.362,199.219 181.055 C 199.756 180.748,200.020 180.496,199.805 180.496 C 199.590 180.496,198.975 180.748,198.438 181.055 M174.516 185.042 C 175.002 185.135,175.705 185.132,176.079 185.034 C 176.452 184.936,176.055 184.860,175.195 184.864 C 174.336 184.868,174.030 184.948,174.516 185.042 M183.891 185.042 C 184.377 185.135,185.080 185.132,185.454 185.034 C 185.827 184.936,185.430 184.860,184.570 184.864 C 183.711 184.868,183.405 184.948,183.891 185.042 " stroke="none" fill="#378e69" fill-rule="evenodd"></path><path id="path4" d="M160.145 78.809 L 157.617 81.445 160.254 78.918 C 162.703 76.570,163.069 76.172,162.782 76.172 C 162.722 76.172,161.535 77.358,160.145 78.809 M240.616 200.684 L 237.305 204.102 240.723 200.790 C 242.603 198.968,244.141 197.430,244.141 197.372 C 244.141 197.088,243.692 197.509,240.616 200.684 " stroke="none" fill="#24af73" fill-rule="evenodd"></path></g></svg>